# xmcd
#
# Track frame offsets:
#	150
#	15477
#	29445
#	51300
#	67497
#	87135
#	101695
#	122012
#	143610
#	157440
#	180495
#	191325
#	207515
#	231255
#	249647
#
# Disc length: 3496 seconds
#
# Revision: 1
# Processed by: cddbd v1.5.1PL2 Copyright (c) Steve Scherf et al.
# Submitted via: audiograbber 1.83.01
#
DISCID=d90da60f
DTITLE=Sound Choice - sc8339
DYEAR=1900
DGENRE=
TTITLE0=Howlin' Wolf - Smokestack Lightning
TTITLE1=Brown, James - Please Please, Please
TTITLE2=King, BB - Thrill Is Gone
TTITLE3=King, BB - Caldonia
TTITLE4=Dixon, Willie - You Shook Me
TTITLE5=Muddy Waters - Rollin' And Tumblin'
TTITLE6=Moore, Gary - Still Got The Blues
TTITLE7=Hardiman, Gloria - Meet Me With Your Black Drawers On
TTITLE8=Williamson, Sonny Boy - Bring It On Home
TTITLE9=Winter, Johnny - Mojo Boogie
TTITLE10=Brown, James - I'll Go Crazy
TTITLE11=Slim Harpo - I'm A King Bee
TTITLE12=Taylor, James - Steamroller Blues (Live)
TTITLE13=Clapton, Eric - Before You Accuse Me
TTITLE14=King, BB - Paying The Cost To Be The Boss
EXTD=
EXTT0=
EXTT1=
EXTT2=
EXTT3=
EXTT4=
EXTT5=
EXTT6=
EXTT7=
EXTT8=
EXTT9=
EXTT10=
EXTT11=
EXTT12=
EXTT13=
EXTT14=
PLAYORDER=
